<svg width="25" height="24" viewBox="0 0 25 24" fill="none" xmlns="http://www.w3.org/2000/svg">
<path d="M17.7915 22.75H6.21146C3.47146 22.75 1.25146 20.52 1.25146 17.78V10.37C1.25146 9.01 2.09146 7.3 3.17146 6.46L8.56147 2.26C10.1815 1 12.7715 0.94 14.4515 2.12L20.6315 6.45C21.8215 7.28 22.7515 9.06 22.7515 10.51V17.79C22.7515 20.52 20.5315 22.75 17.7915 22.75ZM9.48146 3.44L4.09146 7.64C3.38147 8.2 2.75146 9.47 2.75146 10.37V17.78C2.75146 19.69 4.30146 21.25 6.21146 21.25H17.7915C19.7015 21.25 21.2515 19.7 21.2515 17.79V10.51C21.2515 9.55 20.5615 8.22 19.7715 7.68L13.5915 3.35C12.4515 2.55 10.5715 2.59 9.48146 3.44Z" fill="#3D4754"/>
<path d="M12.0015 18.75C11.5915 18.75 11.2515 18.41 11.2515 18V15C11.2515 14.59 11.5915 14.25 12.0015 14.25C12.4115 14.25 12.7515 14.59 12.7515 15V18C12.7515 18.41 12.4115 18.75 12.0015 18.75Z" fill="#3D4754"/>
</svg>
