<svg width="106" height="24" viewBox="0 0 106 24" fill="none" xmlns="http://www.w3.org/2000/svg">
<path d="M10.4217 20.2609H6.42174C5.12562 20.2562 4.07474 19.2092 4.06522 17.9131V9.95654C4.06776 9.52265 4.26191 9.11207 4.59565 8.8348L5.3 8.31306C5.55714 8.03909 5.58329 7.62104 5.36229 7.31716C5.14129 7.01329 4.73552 6.90936 4.39565 7.06958L3.67391 7.60871C2.94588 8.17203 2.51384 9.03611 2.5 9.95654V17.9218C2.50478 20.0857 4.25781 21.8387 6.42174 21.8435H10.4217C10.854 21.8435 11.2043 21.4931 11.2043 21.0609C11.2043 20.6287 10.854 20.2783 10.4217 20.2783V20.2609Z" fill="black"/>
<path d="M21.2913 9.93915C21.2822 9.02548 20.8642 8.16397 20.1522 7.59132L14.1435 2.80002C12.8231 1.73866 10.9421 1.73866 9.62173 2.80002L7.71738 4.18263C7.3596 4.43956 7.27784 4.93788 7.53478 5.29567C7.79171 5.65345 8.29004 5.73521 8.64782 5.47828L10.5783 4.0348C11.3359 3.411 12.4293 3.411 13.1869 4.0348L19.1956 8.8261C19.5415 9.10024 19.7458 9.51528 19.7522 9.95654V17.9218C19.7522 19.2184 18.701 20.2696 17.4043 20.2696H15.6217C15.4392 20.2696 15.2913 20.1216 15.2913 19.9391V16.3478C15.2913 15.2034 14.3661 14.2744 13.2217 14.2696H10.613C10.0618 14.2696 9.53323 14.4885 9.14348 14.8783C8.75374 15.268 8.53478 15.7967 8.53478 16.3478V17.7218C8.53478 18.154 8.88516 18.5044 9.31738 18.5044C9.74961 18.5044 10.1 18.154 10.1 17.7218V16.3478C10.0977 16.2126 10.1498 16.0821 10.2446 15.9856C10.3394 15.8891 10.4691 15.8348 10.6043 15.8348H13.213C13.4916 15.8348 13.7174 16.0606 13.7174 16.3391V19.9391C13.7222 20.9875 14.5734 21.8348 15.6217 21.8348H17.3609C19.5268 21.8348 21.2826 20.079 21.2826 17.9131L21.2913 9.93915Z" fill="black"/>
<path d="M30.499 18.5C30.1817 18.5 29.8983 18.4037 29.649 18.211C29.3997 18.007 29.275 17.7577 29.275 17.463V7.637C29.275 7.34233 29.3713 7.09867 29.564 6.906C29.768 6.702 30.0173 6.6 30.312 6.6H35.208C35.7973 6.6 36.347 6.75867 36.857 7.076C37.3783 7.382 37.7977 7.81267 38.115 8.368C38.4323 8.912 38.591 9.541 38.591 10.255C38.591 10.6857 38.5003 11.105 38.319 11.513C38.149 11.921 37.911 12.2893 37.605 12.618C37.3103 12.9467 36.976 13.2017 36.602 13.383L36.619 12.992C36.9363 13.162 37.197 13.366 37.401 13.604C37.6163 13.8307 37.7807 14.08 37.894 14.352C38.0187 14.6127 38.0923 14.896 38.115 15.202C38.1603 15.4853 38.1887 15.7347 38.2 15.95C38.2227 16.1653 38.2567 16.3467 38.302 16.494C38.3587 16.6413 38.4607 16.7547 38.608 16.834C38.8573 16.9813 39.0103 17.1967 39.067 17.48C39.135 17.752 39.0727 17.9957 38.88 18.211C38.7553 18.3583 38.5967 18.4547 38.404 18.5C38.2113 18.534 38.0187 18.534 37.826 18.5C37.6333 18.4547 37.4747 18.398 37.35 18.33C37.1573 18.2167 36.9647 18.0523 36.772 17.837C36.5793 17.6103 36.4207 17.31 36.296 16.936C36.1827 16.562 36.126 16.0803 36.126 15.491C36.126 15.2983 36.092 15.1227 36.024 14.964C35.956 14.794 35.8597 14.6523 35.735 14.539C35.6103 14.4143 35.4517 14.3237 35.259 14.267C35.0663 14.199 34.8397 14.165 34.579 14.165H31.145L31.4 13.774V17.463C31.4 17.7577 31.3207 18.007 31.162 18.211C31.0033 18.4037 30.7823 18.5 30.499 18.5ZM31.162 12.414H35.123C35.327 12.414 35.5253 12.3233 35.718 12.142C35.9107 11.9493 36.0693 11.6943 36.194 11.377C36.3187 11.0483 36.381 10.6913 36.381 10.306C36.381 9.80733 36.245 9.39367 35.973 9.065C35.7123 8.725 35.429 8.555 35.123 8.555H31.196L31.4 8.011V12.822L31.162 12.414ZM47.3589 9.405C47.6535 9.405 47.8972 9.507 48.0899 9.711C48.2825 9.90367 48.3789 10.1473 48.3789 10.442V14.76C48.3789 15.9613 48.0445 16.9133 47.3759 17.616C46.7072 18.3187 45.7439 18.67 44.4859 18.67C43.2279 18.67 42.2645 18.3187 41.5959 17.616C40.9385 16.9133 40.6099 15.9613 40.6099 14.76V10.442C40.6099 10.1473 40.7062 9.90367 40.8989 9.711C41.0915 9.507 41.3352 9.405 41.6299 9.405C41.9245 9.405 42.1682 9.507 42.3609 9.711C42.5535 9.90367 42.6499 10.1473 42.6499 10.442V14.76C42.6499 15.4513 42.8029 15.967 43.1089 16.307C43.4149 16.6357 43.8739 16.8 44.4859 16.8C45.1092 16.8 45.5739 16.6357 45.8799 16.307C46.1859 15.967 46.3389 15.4513 46.3389 14.76V10.442C46.3389 10.1473 46.4352 9.90367 46.6279 9.711C46.8205 9.507 47.0642 9.405 47.3589 9.405ZM55.3644 9.235C56.2711 9.235 56.9398 9.456 57.3704 9.898C57.8011 10.3287 58.0844 10.8897 58.2204 11.581L57.9314 11.428L58.0674 11.156C58.2034 10.8953 58.4131 10.6177 58.6964 10.323C58.9798 10.017 59.3198 9.762 59.7164 9.558C60.1244 9.34267 60.5778 9.235 61.0764 9.235C61.8924 9.235 62.5101 9.41067 62.9294 9.762C63.3601 10.1133 63.6548 10.5837 63.8134 11.173C63.9721 11.751 64.0514 12.397 64.0514 13.111V17.463C64.0514 17.7577 63.9551 18.007 63.7624 18.211C63.5698 18.4037 63.3261 18.5 63.0314 18.5C62.7368 18.5 62.4931 18.4037 62.3004 18.211C62.1078 18.007 62.0114 17.7577 62.0114 17.463V13.111C62.0114 12.737 61.9661 12.4027 61.8754 12.108C61.7848 11.802 61.6204 11.5583 61.3824 11.377C61.1444 11.1957 60.8044 11.105 60.3624 11.105C59.9318 11.105 59.5634 11.1957 59.2574 11.377C58.9514 11.5583 58.7191 11.802 58.5604 12.108C58.4131 12.4027 58.3394 12.737 58.3394 13.111V17.463C58.3394 17.7577 58.2431 18.007 58.0504 18.211C57.8578 18.4037 57.6141 18.5 57.3194 18.5C57.0248 18.5 56.7811 18.4037 56.5884 18.211C56.3958 18.007 56.2994 17.7577 56.2994 17.463V13.111C56.2994 12.737 56.2541 12.4027 56.1634 12.108C56.0728 11.802 55.9084 11.5583 55.6704 11.377C55.4324 11.1957 55.0924 11.105 54.6504 11.105C54.2198 11.105 53.8514 11.1957 53.5454 11.377C53.2394 11.5583 53.0071 11.802 52.8484 12.108C52.7011 12.4027 52.6274 12.737 52.6274 13.111V17.463C52.6274 17.7577 52.5311 18.007 52.3384 18.211C52.1458 18.4037 51.9021 18.5 51.6074 18.5C51.3128 18.5 51.0691 18.4037 50.8764 18.211C50.6838 18.007 50.5874 17.7577 50.5874 17.463V10.442C50.5874 10.1473 50.6838 9.90367 50.8764 9.711C51.0691 9.507 51.3128 9.405 51.6074 9.405C51.9021 9.405 52.1458 9.507 52.3384 9.711C52.5311 9.90367 52.6274 10.1473 52.6274 10.442V11.173L52.3724 11.122C52.4744 10.9293 52.6161 10.7253 52.7974 10.51C52.9788 10.2833 53.1998 10.0737 53.4604 9.881C53.7211 9.68833 54.0101 9.53533 54.3274 9.422C54.6448 9.29733 54.9904 9.235 55.3644 9.235ZM73.7053 9.235C74 9.235 74.2436 9.33133 74.4363 9.524C74.629 9.71667 74.7253 9.966 74.7253 10.272V17.463C74.7253 17.7577 74.629 18.007 74.4363 18.211C74.2436 18.4037 74 18.5 73.7053 18.5C73.4106 18.5 73.167 18.4037 72.9743 18.211C72.7816 18.007 72.6853 17.7577 72.6853 17.463V16.63L73.0593 16.783C73.0593 16.9303 72.98 17.1117 72.8213 17.327C72.6626 17.531 72.4473 17.735 72.1753 17.939C71.9033 18.143 71.5803 18.3187 71.2063 18.466C70.8436 18.602 70.447 18.67 70.0163 18.67C69.2343 18.67 68.526 18.4717 67.8913 18.075C67.2566 17.667 66.7523 17.1117 66.3783 16.409C66.0156 15.695 65.8343 14.879 65.8343 13.961C65.8343 13.0317 66.0156 12.2157 66.3783 11.513C66.7523 10.799 67.251 10.2437 67.8743 9.847C68.4976 9.439 69.189 9.235 69.9483 9.235C70.4356 9.235 70.8833 9.30867 71.2913 9.456C71.6993 9.60333 72.0506 9.79033 72.3453 10.017C72.6513 10.2437 72.8836 10.476 73.0423 10.714C73.2123 10.9407 73.2973 11.1333 73.2973 11.292L72.6853 11.513V10.272C72.6853 9.97733 72.7816 9.73367 72.9743 9.541C73.167 9.337 73.4106 9.235 73.7053 9.235ZM70.2713 16.8C70.77 16.8 71.2063 16.6753 71.5803 16.426C71.9543 16.1767 72.2433 15.8367 72.4473 15.406C72.6626 14.9753 72.7703 14.4937 72.7703 13.961C72.7703 13.417 72.6626 12.9297 72.4473 12.499C72.2433 12.0683 71.9543 11.7283 71.5803 11.479C71.2063 11.2297 70.77 11.105 70.2713 11.105C69.784 11.105 69.3533 11.2297 68.9793 11.479C68.6053 11.7283 68.3106 12.0683 68.0953 12.499C67.8913 12.9297 67.7893 13.417 67.7893 13.961C67.7893 14.4937 67.8913 14.9753 68.0953 15.406C68.3106 15.8367 68.6053 16.1767 68.9793 16.426C69.3533 16.6753 69.784 16.8 70.2713 16.8ZM81.7111 9.235C82.5271 9.235 83.1448 9.41067 83.5641 9.762C83.9948 10.1133 84.2894 10.5837 84.4481 11.173C84.6068 11.751 84.6861 12.397 84.6861 13.111V17.463C84.6861 17.7577 84.5898 18.007 84.3971 18.211C84.2044 18.4037 83.9608 18.5 83.6661 18.5C83.3714 18.5 83.1278 18.4037 82.9351 18.211C82.7424 18.007 82.6461 17.7577 82.6461 17.463V13.111C82.6461 12.737 82.6008 12.4027 82.5101 12.108C82.4194 11.802 82.2551 11.5583 82.0171 11.377C81.7791 11.1957 81.4391 11.105 80.9971 11.105C80.5664 11.105 80.1981 11.1957 79.8921 11.377C79.5861 11.5583 79.3538 11.802 79.1951 12.108C79.0478 12.4027 78.9741 12.737 78.9741 13.111V17.463C78.9741 17.7577 78.8778 18.007 78.6851 18.211C78.4924 18.4037 78.2488 18.5 77.9541 18.5C77.6594 18.5 77.4158 18.4037 77.2231 18.211C77.0304 18.007 76.9341 17.7577 76.9341 17.463V6.957C76.9341 6.66233 77.0304 6.41867 77.2231 6.226C77.4158 6.022 77.6594 5.92 77.9541 5.92C78.2488 5.92 78.4924 6.022 78.6851 6.226C78.8778 6.41867 78.9741 6.66233 78.9741 6.957V11.173L78.7191 11.122C78.8211 10.9293 78.9628 10.7253 79.1441 10.51C79.3254 10.2833 79.5464 10.0737 79.8071 9.881C80.0678 9.68833 80.3568 9.53533 80.6741 9.422C80.9914 9.29733 81.3371 9.235 81.7111 9.235ZM88.085 18.5C87.7904 18.5 87.5467 18.4037 87.354 18.211C87.1614 18.007 87.065 17.7577 87.065 17.463V6.957C87.065 6.66233 87.1614 6.41867 87.354 6.226C87.5467 6.022 87.7904 5.92 88.085 5.92C88.3797 5.92 88.6234 6.022 88.816 6.226C89.0087 6.41867 89.105 6.66233 89.105 6.957V17.463C89.105 17.7577 89.0087 18.007 88.816 18.211C88.6234 18.4037 88.3797 18.5 88.085 18.5ZM93.491 9.405C93.7517 9.405 93.9784 9.51267 94.171 9.728C94.3637 9.94333 94.46 10.153 94.46 10.357C94.46 10.629 94.324 10.884 94.052 11.122L88.935 15.831L88.85 13.485L92.743 9.728C92.9584 9.51267 93.2077 9.405 93.491 9.405ZM93.746 18.483C93.4514 18.483 93.202 18.3697 92.998 18.143L89.853 14.811L91.4 13.383L94.46 16.715C94.6754 16.9417 94.783 17.1967 94.783 17.48C94.783 17.7747 94.664 18.0183 94.426 18.211C94.1994 18.3923 93.9727 18.483 93.746 18.483ZM103.24 9.405C103.534 9.405 103.778 9.507 103.971 9.711C104.163 9.90367 104.26 10.1473 104.26 10.442V14.76C104.26 15.9613 103.925 16.9133 103.257 17.616C102.588 18.3187 101.625 18.67 100.367 18.67C99.1087 18.67 98.1454 18.3187 97.4767 17.616C96.8194 16.9133 96.4907 15.9613 96.4907 14.76V10.442C96.4907 10.1473 96.5871 9.90367 96.7797 9.711C96.9724 9.507 97.2161 9.405 97.5107 9.405C97.8054 9.405 98.0491 9.507 98.2417 9.711C98.4344 9.90367 98.5307 10.1473 98.5307 10.442V14.76C98.5307 15.4513 98.6837 15.967 98.9897 16.307C99.2957 16.6357 99.7547 16.8 100.367 16.8C100.99 16.8 101.455 16.6357 101.761 16.307C102.067 15.967 102.22 15.4513 102.22 14.76V10.442C102.22 10.1473 102.316 9.90367 102.509 9.711C102.701 9.507 102.945 9.405 103.24 9.405Z" fill="black"/>
</svg>
