<svg width="25" height="24" viewBox="0 0 25 24" fill="none" xmlns="http://www.w3.org/2000/svg">
<path d="M9.00146 22H15.0015C20.0015 22 22.0015 20 22.0015 15V9C22.0015 4 20.0015 2 15.0015 2H9.00146C4.00146 2 2.00146 4 2.00146 9V15C2.00146 20 4.00146 22 9.00146 22Z" stroke="#3D4754" stroke-width="1.5" stroke-linecap="round" stroke-linejoin="round"/>
<path d="M17.0015 2.44V12.42C17.0015 14.39 15.5915 15.16 13.8615 14.12L12.5415 13.33C12.2415 13.15 11.7615 13.15 11.4615 13.33L10.1415 14.12C8.41147 15.15 7.00146 14.39 7.00146 12.42V2.44" stroke="#3D4754" stroke-width="1.5" stroke-linecap="round" stroke-linejoin="round"/>
<path d="M9.00146 22H15.0015C20.0015 22 22.0015 20 22.0015 15V9C22.0015 4 20.0015 2 15.0015 2H9.00146C4.00146 2 2.00146 4 2.00146 9V15C2.00146 20 4.00146 22 9.00146 22Z" stroke="#3D4754" stroke-width="1.5" stroke-linecap="round" stroke-linejoin="round"/>
<path d="M17.0015 2.44V12.42C17.0015 14.39 15.5915 15.16 13.8615 14.12L12.5415 13.33C12.2415 13.15 11.7615 13.15 11.4615 13.33L10.1415 14.12C8.41147 15.15 7.00146 14.39 7.00146 12.42V2.44" stroke="#3D4754" stroke-width="1.5" stroke-linecap="round" stroke-linejoin="round"/>
</svg>
