<svg width="25" height="24" viewBox="0 0 25 24" fill="none" xmlns="http://www.w3.org/2000/svg">
<path d="M12.0015 22.75C7.1215 22.75 3.15149 18.78 3.15149 13.9C3.12149 8.17 8.58149 3.4 10.9315 1.61C11.5615 1.13 12.4415 1.13 13.0715 1.61C15.4215 3.43 20.8815 8.26 20.8515 13.91C20.8515 18.78 16.8815 22.75 12.0015 22.75ZM12.0015 2.75C11.9515 2.75 11.8915 2.77 11.8415 2.81C10.1515 4.1 4.6315 8.71 4.6615 13.9C4.6615 17.96 7.96151 21.25 12.0115 21.25C16.0615 21.25 19.3615 17.96 19.3615 13.91C19.3915 8.79 13.8615 4.12 12.1615 2.81C12.1015 2.77 12.0515 2.75 12.0015 2.75Z" fill="#3D4754"/>
</svg>
