<svg width="25" height="24" viewBox="0 0 25 24" fill="none" xmlns="http://www.w3.org/2000/svg">
<path d="M12.1615 10.87C12.0615 10.86 11.9415 10.86 11.8315 10.87C9.45146 10.79 7.56146 8.84 7.56146 6.44C7.56146 3.99 9.54146 2 12.0015 2C14.4515 2 16.4415 3.99 16.4415 6.44C16.4315 8.84 14.5415 10.79 12.1615 10.87Z" stroke="#3D4754" stroke-width="1.5" stroke-linecap="round" stroke-linejoin="round"/>
<path d="M7.16147 14.56C4.74147 16.18 4.74147 18.82 7.16147 20.43C9.91147 22.27 14.4215 22.27 17.1715 20.43C19.5915 18.81 19.5915 16.17 17.1715 14.56C14.4315 12.73 9.92147 12.73 7.16147 14.56Z" stroke="#3D4754" stroke-width="1.5" stroke-linecap="round" stroke-linejoin="round"/>
</svg>
